<svg width="193" height="36" viewBox="0 0 193 36" fill="none" xmlns="http://www.w3.org/2000/svg">
<g clip-path="url(#clip0_3254_1277)">
<path d="M16.0646 14.7195L12.0873 9.69189L9.61371 12.8322H5.79492V14.8744H10.6067L12.0906 12.9902L16.0635 18.0119L18.5489 14.8744H22.4518V12.8322H17.5593L16.0646 14.7195Z" fill="#0A43CC"/>
<path d="M29.6619 25.853C28.4259 25.5208 28.181 24.8252 28.1864 23.8104C28.2194 17.5079 28.2194 13.9296 28.2086 6.99581C28.2086 6.23761 28.2076 5.47916 28.2058 4.72097L28.2045 4.21167H0.0376465V6.14495L0.0468475 6.55749L0.0445472 6.9976C0.0110649 13.3394 0.0143876 15.5747 0.0174547 22.9192C0.0182215 24.8632 0.0189882 26.7207 0.0189882 28.4273C0.0205217 30.7399 1.05745 31.7735 3.38129 31.7784C4.98027 31.7817 6.57976 31.7827 8.17899 31.7827C8.93963 31.7827 15.5559 31.7802 15.5559 31.7802V31.7546H15.8966C17.1211 31.7546 18.3456 31.7567 19.5699 31.7587H19.7067C20.9759 31.761 22.2449 31.7633 23.5139 31.7633C25.6842 31.7633 27.4569 31.7569 29.093 31.7429C29.9587 31.7355 30.6866 31.4549 31.198 30.9314C31.7268 30.3899 31.9988 29.6223 31.984 28.7111C31.9602 27.3038 31.0917 26.2356 29.6617 25.8535L29.6619 25.853ZM25.7481 23.2932C25.7481 23.4507 25.7332 23.6039 25.7156 23.789C25.7069 23.8783 25.6977 23.9756 25.689 24.0854L25.6555 24.516L9.15509 19.1688L8.88928 19.9298C8.61758 20.7095 8.33643 21.5157 8.03407 22.2953C7.43803 23.8298 6.8218 25.4167 6.12659 26.9471C5.83292 27.5894 5.38717 28.2182 4.83841 28.7642C4.42691 29.1722 4.06218 29.2577 3.82883 29.2577C3.31177 29.2577 2.89362 28.8686 2.68174 28.1901C2.55752 27.7926 2.49081 27.354 2.48902 26.9234C2.47701 19.466 2.47701 14.5494 2.47701 7.27458C2.47701 7.16047 2.48698 7.04713 2.49592 6.96109L2.5271 6.65526H25.7455L25.746 6.99505C25.7524 11.8506 25.7532 13.3014 25.7478 23.293L25.7481 23.2932Z" fill="#0A43CC"/>
</g>
<path d="M48.728 28L55.952 8.4H59.2L66.368 28H63.232L61.552 23.212H53.544L51.864 28H48.728ZM54.384 20.86H60.712L57.548 11.928L54.384 20.86ZM68.1493 28V14.112H70.7813L71.0053 16.548C71.4346 15.6893 72.0599 15.0173 72.8813 14.532C73.7213 14.028 74.6826 13.776 75.7653 13.776C77.4453 13.776 78.7613 14.2987 79.7133 15.344C80.6839 16.3893 81.1693 17.948 81.1693 20.02V28H78.2293V20.328C78.2293 17.64 77.1279 16.296 74.9253 16.296C73.8239 16.296 72.9093 16.688 72.1813 17.472C71.4719 18.256 71.1173 19.376 71.1173 20.832V28H68.1493ZM88.5289 28.336C87.3529 28.336 86.3822 28.14 85.6169 27.748C84.8516 27.356 84.2822 26.8427 83.9089 26.208C83.5356 25.5547 83.3489 24.8453 83.3489 24.08C83.3489 22.736 83.8716 21.672 84.9169 20.888C85.9622 20.104 87.4556 19.712 89.3969 19.712H93.0369V19.46C93.0369 18.3773 92.7382 17.5653 92.1409 17.024C91.5622 16.4827 90.8062 16.212 89.8729 16.212C89.0516 16.212 88.3329 16.4173 87.7169 16.828C87.1196 17.22 86.7556 17.808 86.6249 18.592H83.6569C83.7502 17.584 84.0862 16.7253 84.6649 16.016C85.2622 15.288 86.0089 14.7373 86.9049 14.364C87.8196 13.972 88.8182 13.776 89.9009 13.776C91.8422 13.776 93.3449 14.2893 94.4089 15.316C95.4729 16.324 96.0049 17.7053 96.0049 19.46V28H93.4289L93.1769 25.62C92.7849 26.3853 92.2156 27.0293 91.4689 27.552C90.7222 28.0747 89.7422 28.336 88.5289 28.336ZM89.1169 25.928C89.9196 25.928 90.5916 25.7413 91.1329 25.368C91.6929 24.976 92.1222 24.4627 92.4209 23.828C92.7382 23.1933 92.9342 22.4933 93.0089 21.728H89.7049C88.5289 21.728 87.6889 21.9333 87.1849 22.344C86.6996 22.7547 86.4569 23.268 86.4569 23.884C86.4569 24.5187 86.6902 25.0227 87.1569 25.396C87.6422 25.7507 88.2956 25.928 89.1169 25.928ZM98.6255 28V14.112H101.258L101.51 16.072C101.958 15.3627 102.546 14.8027 103.274 14.392C104.02 13.9813 104.879 13.776 105.85 13.776C108.052 13.776 109.583 14.644 110.442 16.38C110.946 15.5773 111.618 14.9427 112.458 14.476C113.316 14.0093 114.24 13.776 115.23 13.776C116.966 13.776 118.328 14.2987 119.318 15.344C120.307 16.3893 120.802 17.948 120.802 20.02V28H117.834V20.328C117.834 17.64 116.807 16.296 114.754 16.296C113.708 16.296 112.85 16.688 112.178 17.472C111.524 18.256 111.198 19.376 111.198 20.832V28H108.23V20.328C108.23 17.64 107.194 16.296 105.122 16.296C104.095 16.296 103.246 16.688 102.574 17.472C101.92 18.256 101.594 19.376 101.594 20.832V28H98.6255ZM123.434 28V14.112H126.066L126.29 16.548C126.719 15.6893 127.345 15.0173 128.166 14.532C129.006 14.028 129.967 13.776 131.05 13.776C132.73 13.776 134.046 14.2987 134.998 15.344C135.969 16.3893 136.454 17.948 136.454 20.02V28H133.514V20.328C133.514 17.64 132.413 16.296 130.21 16.296C129.109 16.296 128.194 16.688 127.466 17.472C126.757 18.256 126.402 19.376 126.402 20.832V28H123.434ZM145.606 28.336C144.28 28.336 143.086 28.0373 142.022 27.44C140.976 26.824 140.146 25.9747 139.53 24.892C138.914 23.7907 138.606 22.512 138.606 21.056C138.606 19.6 138.914 18.3307 139.53 17.248C140.164 16.1467 141.014 15.2973 142.078 14.7C143.142 14.084 144.327 13.776 145.634 13.776C146.959 13.776 148.144 14.084 149.19 14.7C150.254 15.2973 151.094 16.1467 151.71 17.248C152.344 18.3307 152.662 19.6 152.662 21.056C152.662 22.512 152.344 23.7907 151.71 24.892C151.094 25.9747 150.254 26.824 149.19 27.44C148.126 28.0373 146.931 28.336 145.606 28.336ZM145.606 25.788C146.315 25.788 146.968 25.6107 147.566 25.256C148.182 24.9013 148.676 24.3787 149.05 23.688C149.423 22.9787 149.61 22.1013 149.61 21.056C149.61 20.0107 149.423 19.1427 149.05 18.452C148.695 17.7427 148.21 17.2107 147.594 16.856C146.996 16.5013 146.343 16.324 145.634 16.324C144.924 16.324 144.262 16.5013 143.646 16.856C143.048 17.2107 142.563 17.7427 142.19 18.452C141.816 19.1427 141.63 20.0107 141.63 21.056C141.63 22.1013 141.816 22.9787 142.19 23.688C142.563 24.3787 143.048 24.9013 143.646 25.256C144.243 25.6107 144.896 25.788 145.606 25.788ZM160.308 28C158.946 28 157.863 27.6733 157.06 27.02C156.258 26.348 155.856 25.1627 155.856 23.464V16.604H153.476V14.112H155.856L156.22 10.584H158.824V14.112H162.744V16.604H158.824V23.464C158.824 24.2293 158.983 24.7613 159.3 25.06C159.636 25.34 160.206 25.48 161.008 25.48H162.604V28H160.308ZM171.105 28.336C169.743 28.336 168.529 28.0373 167.465 27.44C166.42 26.824 165.599 25.9747 165.001 24.892C164.404 23.8093 164.105 22.5493 164.105 21.112C164.105 19.656 164.395 18.3773 164.973 17.276C165.571 16.1747 166.392 15.316 167.437 14.7C168.501 14.084 169.733 13.776 171.133 13.776C172.496 13.776 173.681 14.084 174.689 14.7C175.697 15.2973 176.481 16.1 177.041 17.108C177.601 18.116 177.881 19.2267 177.881 20.44C177.881 20.6267 177.872 20.832 177.853 21.056C177.853 21.2613 177.844 21.4947 177.825 21.756H167.017C167.111 23.1 167.549 24.1267 168.333 24.836C169.136 25.5267 170.06 25.872 171.105 25.872C171.945 25.872 172.645 25.6853 173.205 25.312C173.784 24.92 174.213 24.3973 174.493 23.744H177.461C177.088 25.0507 176.341 26.1427 175.221 27.02C174.12 27.8973 172.748 28.336 171.105 28.336ZM171.105 16.212C170.116 16.212 169.239 16.5107 168.473 17.108C167.708 17.6867 167.241 18.564 167.073 19.74H174.913C174.857 18.6573 174.475 17.7987 173.765 17.164C173.056 16.5293 172.169 16.212 171.105 16.212ZM185.665 28.336C183.91 28.336 182.464 27.9067 181.325 27.048C180.186 26.1893 179.533 25.0507 179.365 23.632H182.361C182.51 24.2667 182.865 24.8173 183.425 25.284C183.985 25.732 184.722 25.956 185.637 25.956C186.533 25.956 187.186 25.7693 187.597 25.396C188.008 25.0227 188.213 24.5933 188.213 24.108C188.213 23.3987 187.924 22.9227 187.345 22.68C186.785 22.4187 186.001 22.1853 184.993 21.98C184.209 21.812 183.425 21.588 182.641 21.308C181.876 21.028 181.232 20.636 180.709 20.132C180.205 19.6093 179.953 18.9093 179.953 18.032C179.953 16.8187 180.42 15.8107 181.353 15.008C182.286 14.1867 183.593 13.776 185.273 13.776C186.822 13.776 188.073 14.1493 189.025 14.896C189.996 15.6427 190.565 16.6973 190.733 18.06H187.877C187.784 17.4627 187.504 16.996 187.037 16.66C186.589 16.324 185.982 16.156 185.217 16.156C184.47 16.156 183.892 16.3147 183.481 16.632C183.07 16.9307 182.865 17.3227 182.865 17.808C182.865 18.2933 183.145 18.676 183.705 18.956C184.284 19.236 185.04 19.488 185.973 19.712C186.906 19.9173 187.765 20.16 188.549 20.44C189.352 20.7013 189.996 21.0933 190.481 21.616C190.966 22.1387 191.209 22.904 191.209 23.912C191.228 25.1813 190.733 26.236 189.725 27.076C188.736 27.916 187.382 28.336 185.665 28.336Z" fill="#0A43CC"/>
<defs>
<clipPath id="clip0_3254_1277">
<rect width="32" height="27.5963" fill="white" transform="translate(0 4.2019)"/>
</clipPath>
</defs>
</svg>
