<svg width="32" height="32" viewBox="0 0 32 32" fill="none" xmlns="http://www.w3.org/2000/svg">
<g clip-path="url(#clip0_3256_1283)">
<path d="M16.0646 12.7195L12.0873 7.69189L9.61371 10.8322H5.79492V12.8744H10.6067L12.0906 10.9902L16.0635 16.0119L18.5489 12.8744H22.4518V10.8322H17.5593L16.0646 12.7195Z" fill="#0A43CC"/>
<path d="M29.6619 23.853C28.4259 23.5208 28.181 22.8252 28.1864 21.8104C28.2194 15.5079 28.2194 11.9296 28.2086 4.99581C28.2086 4.23761 28.2076 3.47916 28.2058 2.72097L28.2045 2.21167H0.0376465V4.14495L0.0468475 4.55749L0.0445472 4.9976C0.0110649 11.3394 0.0143876 13.5747 0.0174547 20.9192C0.0182215 22.8632 0.0189882 24.7207 0.0189882 26.4273C0.0205217 28.7399 1.05745 29.7735 3.38129 29.7784C4.98027 29.7817 6.57976 29.7827 8.17899 29.7827C8.93963 29.7827 15.5559 29.7802 15.5559 29.7802V29.7546H15.8966C17.1211 29.7546 18.3456 29.7567 19.5699 29.7587H19.7067C20.9759 29.761 22.2449 29.7633 23.5139 29.7633C25.6842 29.7633 27.4569 29.7569 29.093 29.7429C29.9587 29.7355 30.6866 29.4549 31.198 28.9314C31.7268 28.3899 31.9988 27.6223 31.984 26.7111C31.9602 25.3038 31.0917 24.2356 29.6617 23.8535L29.6619 23.853ZM25.7481 21.2932C25.7481 21.4507 25.7332 21.6039 25.7156 21.789C25.7069 21.8783 25.6977 21.9756 25.689 22.0854L25.6555 22.516L9.15509 17.1688L8.88928 17.9298C8.61758 18.7095 8.33643 19.5157 8.03407 20.2953C7.43803 21.8298 6.8218 23.4167 6.12659 24.9471C5.83292 25.5894 5.38717 26.2182 4.83841 26.7642C4.42691 27.1722 4.06218 27.2577 3.82883 27.2577C3.31177 27.2577 2.89362 26.8686 2.68174 26.1901C2.55752 25.7926 2.49081 25.354 2.48902 24.9234C2.47701 17.466 2.47701 12.5494 2.47701 5.27458C2.47701 5.16047 2.48698 5.04713 2.49592 4.96109L2.5271 4.65526H25.7455L25.746 4.99505C25.7524 9.85057 25.7532 11.3014 25.7478 21.293L25.7481 21.2932Z" fill="#0A43CC"/>
</g>
<defs>
<clipPath id="clip0_3256_1283">
<rect width="32" height="27.5963" fill="white" transform="translate(0 2.2019)"/>
</clipPath>
</defs>
</svg>
